<?xml version="1.0" standalone="no"?>
<!DOCTYPE svg PUBLIC "-//W3C//DTD SVG 20010904//EN"
 "http://www.w3.org/TR/2001/REC-SVG-20010904/DTD/svg10.dtd">
<svg version="1.0" xmlns="http://www.w3.org/2000/svg"
 width="300.000000pt" height="300.000000pt" viewBox="0 0 300.000000 300.000000"
 preserveAspectRatio="xMidYMid meet">
<metadata>
Created by potrace 1.10, written by Peter Selinger 2001-2011
</metadata>
<g transform="translate(0.000000,300.000000) scale(0.100000,-0.100000)"
fill="#000000" stroke="none">
<path d="M1282 2343 c-26 -12 -43 -35 -73 -95 l-39 -78 -45 0 c-38 0 -45 3
-45 19 0 47 -8 51 -96 51 -72 0 -85 -3 -94 -19 -5 -11 -8 -26 -5 -33 3 -8 -11
-20 -41 -32 -31 -13 -54 -31 -72 -59 l-27 -40 -3 -321 c-2 -177 0 -340 3 -364
7 -50 53 -108 102 -128 26 -11 155 -14 656 -14 l624 0 43 23 c30 16 51 37 67
67 l24 45 -3 351 -3 351 -28 36 c-44 58 -57 62 -232 67 l-159 5 -41 74 c-60
109 -67 111 -295 111 -151 0 -191 -3 -218 -17z m409 -75 c6 -7 27 -44 47 -83
22 -41 47 -75 62 -82 17 -9 76 -13 178 -13 149 0 154 -1 177 -25 l25 -24 0
-339 0 -339 -25 -27 -24 -26 -630 0 -629 0 -26 31 -26 31 0 324 c0 341 4 372
45 388 9 3 85 6 169 6 178 0 181 2 227 93 52 103 37 97 240 97 130 0 181 -3
190 -12z m-641 -90 c35 -42 27 -48 -65 -48 -61 0 -85 3 -85 13 1 16 31 53 50
60 28 12 81 -2 100 -25z"/>
<path d="M1350 2050 c-122 -42 -245 -136 -343 -262 l-59 -77 45 -64 c25 -35
80 -96 122 -135 244 -228 532 -225 778 8 46 44 101 104 122 134 l37 54 -32 47
c-90 131 -233 247 -358 291 -87 31 -230 33 -312 4z m246 -64 c90 -24 174 -76
260 -161 118 -118 117 -108 28 -203 -89 -96 -173 -155 -261 -182 -178 -55
-344 5 -507 182 -88 96 -89 86 23 198 149 150 306 206 457 166z"/>
<path d="M1445 1929 c-56 -14 -112 -55 -141 -105 -115 -196 100 -420 304 -315
94 48 140 163 109 275 l-8 29 -19 -31 c-36 -59 -86 -68 -131 -23 -47 47 -32
108 34 136 l30 12 -34 11 c-55 18 -101 21 -144 11z m57 -95 c-4 -58 -2 -63 32
-99 35 -36 37 -37 92 -33 68 6 73 -2 44 -70 -42 -98 -148 -137 -248 -92 -156
71 -148 285 13 344 65 24 70 19 67 -50z"/>
<path d="M527 1054 c-4 -4 -7 -79 -7 -166 l0 -158 35 0 35 0 0 65 0 65 50 0
50 0 0 -64 c0 -63 0 -64 30 -68 17 -3 32 -2 35 0 3 3 5 79 5 169 l0 164 -36
-3 -37 -3 -1 -64 -1 -64 -45 0 -45 0 0 64 c0 64 0 64 -30 67 -17 2 -34 0 -38
-4z"/>
<path d="M830 896 l0 -164 30 -4 c17 -3 32 -2 35 0 3 3 5 79 5 169 l0 163 -35
0 -35 0 0 -164z"/>
<path d="M952 1043 c3 -10 22 -84 44 -165 l39 -148 42 0 c40 0 43 2 52 38 60
231 71 276 71 283 0 5 -15 9 -33 9 l-34 0 -27 -122 c-15 -67 -28 -124 -30
-125 -1 -2 -13 48 -26 109 -13 62 -25 119 -28 126 -2 6 -20 12 -39 12 -29 0
-34 -3 -31 -17z"/>
<path d="M1250 897 c0 -90 2 -166 4 -168 2 -2 45 -3 95 -1 l91 3 0 30 c0 29 0
29 -60 29 l-60 0 0 34 0 35 53 3 c50 3 52 4 52 33 0 30 0 30 -52 28 l-53 -2 0
40 0 40 58 -2 57 -3 3 32 3 32 -95 0 -96 0 0 -163z"/>
<path d="M1502 894 l3 -166 90 0 90 0 3 31 3 31 -60 0 -61 0 0 135 0 135 -35
0 -35 0 2 -166z"/>
<path d="M1740 889 c0 -152 2 -170 16 -165 9 3 52 6 95 6 l80 0 -3 28 c-3 25
-6 27 -59 30 -57 3 -57 3 -61 37 l-4 35 53 0 53 0 0 36 0 35 -52 -3 -51 -3 0
35 -1 35 60 1 c58 1 59 1 59 30 l0 29 -92 3 -93 3 0 -172z"/>
<path d="M1990 895 l0 -165 31 0 30 0 -3 100 c-2 55 -1 100 2 99 3 0 27 -45
55 -100 45 -90 52 -99 77 -99 l28 0 0 165 0 165 -31 0 -32 0 5 -105 c3 -57 2
-102 -1 -100 -3 2 -28 49 -56 104 -45 92 -52 101 -77 101 l-28 0 0 -165z"/>
<path d="M2295 1035 c-18 -17 -25 -35 -25 -62 0 -51 19 -76 79 -102 58 -25 77
-49 58 -75 -19 -26 -71 -18 -75 12 -3 18 -10 22 -38 22 -37 0 -42 -11 -22 -55
37 -83 187 -67 204 21 11 59 -13 97 -80 123 -58 24 -77 51 -55 77 17 21 52 13
64 -13 7 -16 18 -23 37 -23 23 0 28 4 28 25 0 14 -11 37 -25 50 -19 20 -34 25
-75 25 -41 0 -56 -5 -75 -25z"/>
</g>
</svg>
